<?xml version="1.0" encoding="UTF-8"?>
<svg id="Layer_1" xmlns="http://www.w3.org/2000/svg" version="1.1" xmlns:xlink="http://www.w3.org/1999/xlink" viewBox="0 0 3930.58 995.39">
  <!-- Generator: Adobe Illustrator 29.7.1, SVG Export Plug-In . SVG Version: 2.1.1 Build 8)  -->
  <defs>
    <style>
      .st0 {
        fill: url(#linear-gradient2);
      }

      .st1 {
        fill: #67382c;
      }

      .st2 {
        fill: url(#linear-gradient1);
      }

      .st3 {
        fill: #fff;
        isolation: isolate;
        opacity: .3;
      }

      .st4 {
        fill: url(#linear-gradient4);
      }

      .st5 {
        fill: url(#linear-gradient5);
      }

      .st6 {
        fill: url(#linear-gradient3);
      }

      .st7 {
        fill: url(#linear-gradient6);
      }

      .st8 {
        fill: url(#linear-gradient);
      }
    </style>
    <linearGradient id="linear-gradient" x1="409.53" y1="1882.63" x2="879.45" y2="1882.63" gradientTransform="translate(489.04 2448.18) rotate(-16.88) scale(.96 -.95) skewX(.1)" gradientUnits="userSpaceOnUse">
      <stop offset="0" stop-color="#f9c751"/>
      <stop offset="1" stop-color="#f6b819"/>
    </linearGradient>
    <linearGradient id="linear-gradient1" x1="570" y1="785.44" x2="846.52" y2="785.44" gradientTransform="translate(0 993.82) scale(1 -1)" gradientUnits="userSpaceOnUse">
      <stop offset="0" stop-color="#43a98b"/>
      <stop offset=".18" stop-color="#43a889"/>
      <stop offset="1" stop-color="#306f4f"/>
    </linearGradient>
    <linearGradient id="linear-gradient2" x1="64.28" y1="496.13" x2="289.95" y2="496.13" gradientTransform="translate(0 993.82) scale(1 -1)" gradientUnits="userSpaceOnUse">
      <stop offset="0" stop-color="#43a98b"/>
      <stop offset=".18" stop-color="#43a889"/>
      <stop offset="1" stop-color="#306f4f"/>
    </linearGradient>
    <linearGradient id="linear-gradient3" x1="890.44" y1="496.12" x2="1116.11" y2="496.12" gradientTransform="translate(0 993.82) scale(1 -1)" gradientUnits="userSpaceOnUse">
      <stop offset="0" stop-color="#43a98b"/>
      <stop offset=".18" stop-color="#43a889"/>
      <stop offset="1" stop-color="#306f4f"/>
    </linearGradient>
    <linearGradient id="linear-gradient4" x1="2736.04" y1="494.23" x2="3866.3" y2="494.23" gradientTransform="translate(0 993.82) scale(1 -1)" gradientUnits="userSpaceOnUse">
      <stop offset="0" stop-color="#f6b819"/>
      <stop offset="1" stop-color="#f9c751"/>
    </linearGradient>
    <linearGradient id="linear-gradient5" x1="1270.32" y1="459.9" x2="2757.49" y2="459.9" gradientTransform="translate(0 993.82) scale(1 -1)" gradientUnits="userSpaceOnUse">
      <stop offset="0" stop-color="#43a98b"/>
      <stop offset="1" stop-color="#306f4f"/>
    </linearGradient>
    <linearGradient id="linear-gradient6" x1="2085.61" y1="551.39" x2="2447.75" y2="551.39" gradientTransform="translate(0 993.82) scale(1 -1)" gradientUnits="userSpaceOnUse">
      <stop offset="0" stop-color="#43a98b"/>
      <stop offset="1" stop-color="#306f4f"/>
    </linearGradient>
  </defs>
  <g>
    <path class="st8" d="M564.34,279.14c-43.01-.84-85.96,8.79-123.51,29.91-121.74,68.49-115.18,207.49-83.36,267.67,0,0,49.18,98.85,39.87,170.97-6.37,85.74,84.65,158.04,220.93,71.08,106.8-68.15,171.45-187.07,162.64-312.08-8.32-117.96-77.16-224.83-216.57-227.56h0Z"/>
    <path class="st2" d="M570.01,258.42s51.66,18.9,120.22,17.26c79.49-1.9,141.13-60.64,156.29-94.87,0,0-45.67-31.78-106.77-38.59-82.82-9.23-142.94,33.92-169.75,102.85,0,0,48.19-46.57,142.41-25.34,0,0-92.3-4.82-142.41,38.7h.01Z"/>
    <path class="st1" d="M534.92,268.29s-9.35-64.24-77.22-78.94c-32.23-12.77-15.5-55.01,16.73-42.25,0,0,70.94,27.37,79.5,115l-19.01,6.19Z"/>
    <path class="st3" d="M394.2,464.01c1.38-28.9,13.09-80.94,74.15-116.11,6.5-3.74,14.69-3.02,20.47,1.76h0c8.81,7.29,8.71,20.84-.28,27.91-19.25,15.14-47.3,44.44-54.52,90.43-1.51,9.61-9.67,16.77-19.4,16.95h0c-11.59.22-20.98-9.37-20.43-20.95h.01Z"/>
    <circle class="st3" cx="405.18" cy="538.17" r="19.87"/>
    <g>
      <path class="st0" d="M64.29,465.09c36.61,0,66.29-29.68,66.29-66.29v-197.04c0-67.02,54.32-121.35,121.34-121.35h22.82c8.4,0,15.21,6.81,15.21,15.21v39.84c0,8.4-6.81,15.21-15.21,15.21h-31.51c-23.01,0-41.66,18.65-41.66,41.66v202.97c0,39.84-25.62,90.1-61.29,102.39,35.67,12.29,61.29,62.55,61.29,102.39v202.97c0,23.01,18.65,41.66,41.66,41.66h31.51c8.4,0,15.21,6.81,15.21,15.21v39.84c0,8.4-6.81,15.21-15.21,15.21h-22.82c-67.02,0-121.35-54.33-121.35-121.35v-197.05c0-36.61-29.68-66.29-66.29-66.29v-65.2h.01Z"/>
      <path class="st6" d="M1116.11,497.69v32.6c-36.61,0-66.29,29.68-66.29,66.29v197.05c0,67.02-54.33,121.35-121.35,121.35h-22.82c-8.4,0-15.21-6.81-15.21-15.21v-39.84c0-8.4,6.81-15.21,15.21-15.21h31.51c23.01,0,41.66-18.65,41.66-41.66v-202.97c0-39.84,25.62-90.1,61.29-102.39-35.67-12.29-61.29-62.55-61.29-102.39v-202.97c0-23.01-18.65-41.66-41.66-41.66h-31.51c-8.4,0-15.21-6.81-15.21-15.21v-39.85c0-8.4,6.81-15.21,15.21-15.21h22.82c67.02,0,121.35,54.33,121.35,121.35v197.05c0,36.61,29.68,66.29,66.29,66.29v32.6h0Z"/>
    </g>
  </g>
  <g>
    <path class="st4" d="M3029.09,664.46h81l-149.62-333.55h-76.24l-148.19,333.55h79.1l29.72-71.48h154.5l29.72,71.48h.01ZM2869.23,534.38l52.88-127.16,52.88,127.16h-105.76ZM3334.04,431.93c-21.6-18.42-51.94-27.64-91.01-27.64-20.34,0-40.35,2.62-60.04,7.86-19.7,5.24-36.54,12.95-50.5,23.11l26.21,51.94c9.53-7.3,20.88-13.1,34.07-17.39,13.18-4.29,26.6-6.43,40.26-6.43,20.01,0,34.86,4.45,44.55,13.34,9.68,8.9,14.53,21.29,14.53,37.17v.47h-58.61c-26.37,0-47.65,3.18-63.85,9.53-16.2,6.36-28.04,15.33-35.5,26.92-7.47,11.6-11.2,24.86-11.2,39.79s3.89,27.8,11.67,39.55,18.82,21.05,33.12,27.87c14.29,6.83,31.28,10.24,50.98,10.24,22.55,0,40.98-4.36,55.27-13.1,9.66-5.9,17.27-13.44,22.87-22.6v31.89h69.57v-146.28c0-39.07-10.81-67.82-32.4-86.25h0ZM3270.91,609.67c-10.01,5.72-21.37,8.58-34.07,8.58s-22.8-2.78-30.26-8.34c-7.47-5.56-11.2-13.1-11.2-22.64,0-8.58,3.26-15.72,9.77-21.44s18.5-8.58,35.97-8.58h50.99v26.21c-4.13,11.75-11.2,20.49-21.21,26.21h0ZM3866.29,517.7v146.76h-74.33v-135.33c0-20.65-4.21-35.89-12.63-45.74-8.42-9.84-20.25-14.77-35.5-14.77-11.12,0-20.96,2.46-29.54,7.39s-15.18,12.23-19.78,21.92c-4.6,9.69-6.91,22.32-6.91,37.88v128.65h-74.34v-135.33c0-20.65-4.21-35.89-12.62-45.74-8.42-9.84-20.58-14.77-36.46-14.77-10.8,0-20.49,2.46-29.07,7.39s-15.24,12.23-20.01,21.92c-4.76,9.69-7.14,22.32-7.14,37.88v128.65h-74.34v-256.36h71v29.27c6.82-7.86,14.92-14.36,24.3-19.5,16.52-9.05,35.1-13.58,55.75-13.58,23.51,0,44.15,5.96,61.95,17.87,9.36,6.27,17.03,14.29,23.05,24.03,7.36-9.26,16.35-17.27,26.99-24.03,18.74-11.91,40.5-17.87,65.28-17.87,20.32,0,38.36,4.05,54.09,12.15,15.72,8.1,28.03,20.49,36.93,37.17,8.89,16.68,13.34,38.04,13.34,64.09h-.01Z"/>
    <path class="st5" d="M1450.91,670.18c-25.73,0-49.64-4.22-71.71-12.63-22.08-8.41-41.22-20.41-57.42-35.97-16.2-15.56-28.83-33.83-37.88-54.8-9.05-20.96-13.58-43.99-13.58-69.09s4.53-48.13,13.58-69.09c9.05-20.96,21.75-39.23,38.12-54.8,16.36-15.56,35.57-27.55,57.66-35.97,22.08-8.41,45.98-12.63,71.71-12.63,28.9,0,55.11,5,78.62,15.01,23.51,10.01,43.2,24.71,59.09,44.08l-50.03,45.74c-11.12-13.02-23.75-22.87-37.88-29.54-14.14-6.67-29.47-10.01-45.98-10.01-15.57,0-29.86,2.62-42.89,7.86s-24.3,12.63-33.83,22.16-16.92,20.81-22.16,33.83c-5.24,13.03-7.86,27.48-7.86,43.36s2.62,30.34,7.86,43.36c5.24,13.03,12.63,24.3,22.16,33.83,9.53,9.53,20.8,16.91,33.83,22.15,13.02,5.24,27.32,7.86,42.89,7.86,16.51,0,31.84-3.41,45.98-10.24,14.13-6.83,26.76-16.75,37.88-29.78l50.03,45.74c-15.89,19.38-35.58,34.15-59.09,44.32-23.51,10.16-49.87,15.25-79.1,15.25h0ZM1733.01,418.35c-10.79,6.01-19.68,13.82-26.69,23.41v-33.65h-71v256.36h74.33v-121.03c0-24.46,6.2-42.57,18.58-54.32,12.39-11.75,29.07-17.63,50.03-17.63,2.54,0,5.16.16,7.86.48s5.48.8,8.34,1.43v-69.09c-24.14,0-44.63,4.69-61.46,14.06v-.02ZM2016.52,431.93c-21.6-18.42-51.94-27.64-91.01-27.64-20.34,0-40.35,2.62-60.04,7.86-19.7,5.24-36.54,12.95-50.5,23.11l26.21,51.94c9.53-7.3,20.88-13.1,34.07-17.39,13.18-4.29,26.6-6.43,40.26-6.43,20.01,0,34.86,4.45,44.55,13.34,9.68,8.9,14.53,21.29,14.53,37.17v.47h-58.61c-26.37,0-47.65,3.18-63.85,9.53-16.2,6.36-28.04,15.33-35.5,26.92-7.47,11.6-11.2,24.86-11.2,39.79s3.89,27.8,11.67,39.55c7.78,11.75,18.82,21.05,33.12,27.87,14.29,6.83,31.28,10.24,50.98,10.24,22.55,0,40.98-4.36,55.27-13.1,9.66-5.9,17.27-13.44,22.87-22.6v31.89h69.57v-146.28c0-39.07-10.81-67.82-32.4-86.25h0ZM1953.39,609.67c-10.01,5.72-21.37,8.58-34.07,8.58s-22.8-2.78-30.26-8.34c-7.47-5.56-11.2-13.1-11.2-22.64,0-8.58,3.26-15.72,9.77-21.44s18.5-8.58,35.97-8.58h50.99v26.21c-4.13,11.75-11.2,20.49-21.21,26.21h.01ZM2125.16,664.46v-262.08c0-29.22,8.58-52.42,25.73-69.57,17.15-17.15,41.62-25.73,73.38-25.73,10.48,0,20.8,1.12,30.97,3.34,10.16,2.23,18.74,5.56,25.73,10.01l-19.53,54.32c-4.13-2.86-8.74-5.08-13.82-6.67-5.09-1.59-10.48-2.38-16.2-2.38-10.81,0-19.14,3.02-25.02,9.05-5.88,6.04-8.82,15.57-8.82,28.59v23.82l2.38,31.45v205.85h-74.81.01ZM2405.34,668.28c-30.18,0-53.69-7.7-70.52-23.11-16.84-15.4-25.25-38.36-25.25-68.85v-224.91h74.81v223.48c0,10.8,2.78,19.22,8.34,25.25,5.56,6.04,13.11,9.05,22.64,9.05,12.07,0,22.23-3.17,30.49-9.53l19.53,52.42c-7.31,5.4-16.28,9.46-26.92,12.15-10.65,2.7-21.68,4.05-33.12,4.05h0ZM2686.48,408.11l-72.73,173.96-72.12-173.96h-76.24l110.51,258.48-.92,2.17c-5.08,11.44-10.72,19.61-16.91,24.54-6.2,4.92-14.37,7.39-24.54,7.39-7.63,0-15.18-1.43-22.64-4.29s-14.06-6.99-19.77-12.39l-27.16,53.37c8.58,7.3,19.37,13.02,32.4,17.16,13.03,4.13,26.05,6.2,39.08,6.2,15.56,0,29.78-2.39,42.64-7.15,12.87-4.77,24.62-12.95,35.26-24.54,10.64-11.6,20.09-27.88,28.35-48.84l115.8-272.08h-71v-.02Z"/>
    <rect class="st7" x="2085.61" y="413.83" width="362.14" height="57.18"/>
  </g>
</svg>